<?xml version="1.0" encoding="UTF-8" standalone="no"?>
<!-- Created with Inkscape (http://www.inkscape.org/) -->

<svg
   xmlns:dc="http://purl.org/dc/elements/1.1/"
   xmlns:cc="http://creativecommons.org/ns#"
   xmlns:rdf="http://www.w3.org/1999/02/22-rdf-syntax-ns#"
   xmlns:svg="http://www.w3.org/2000/svg"
   xmlns="http://www.w3.org/2000/svg"
   xmlns:sodipodi="http://sodipodi.sourceforge.net/DTD/sodipodi-0.dtd"
   xmlns:inkscape="http://www.inkscape.org/namespaces/inkscape"
   width="46.285603mm"
   height="13.859126mm"
   viewBox="0 0 164.0041 49.107139"
   id="svg2"
   version="1.1"
   inkscape:version="0.91 r13725"
   sodipodi:docname="logo.svg">
  <defs
     id="defs4" />
  <sodipodi:namedview
     id="base"
     pagecolor="#ffffff"
     bordercolor="#666666"
     borderopacity="1.0"
     inkscape:pageopacity="0.0"
     inkscape:pageshadow="2"
     inkscape:zoom="3.959798"
     inkscape:cx="100.22892"
     inkscape:cy="24.83721"
     inkscape:document-units="px"
     inkscape:current-layer="layer1"
     showgrid="false"
     fit-margin-top="0"
     fit-margin-left="0"
     fit-margin-right="0"
     fit-margin-bottom="0"
     inkscape:window-width="1440"
     inkscape:window-height="847"
     inkscape:window-x="-8"
     inkscape:window-y="168"
     inkscape:window-maximized="1" />
  <metadata
     id="metadata7">
    <rdf:RDF>
      <cc:Work
         rdf:about="">
        <dc:format>image/svg+xml</dc:format>
        <dc:type
           rdf:resource="http://purl.org/dc/dcmitype/StillImage" />
        <dc:title></dc:title>
      </cc:Work>
    </rdf:RDF>
  </metadata>
  <g
     inkscape:label="Layer 1"
     inkscape:groupmode="layer"
     id="layer1"
     transform="translate(1533.5714,-501.62753)">
    <path
       style="opacity:1;fill:#009688;fill-opacity:1;stroke:none;stroke-width:1.60000002;stroke-miterlimit:4;stroke-dasharray:none;stroke-opacity:0.15458937"
       d="m -1533.5714,501.62753 164.0041,0 0,49.10714 -164.0041,0 z"
       id="rect4154"
       inkscape:connector-curvature="0" />
    <g
       id="g4219"
       transform="translate(0.21699251,-1.4745783e-6)">
      <g
         style="opacity:1;fill:#ffff8d;fill-opacity:1"
         transform="translate(-0.33315,2.499985)"
         id="g4188">
        <path
           inkscape:connector-curvature="0"
           id="path4158"
           style="font-style:normal;font-variant:normal;font-weight:500;font-stretch:normal;font-size:medium;line-height:125%;font-family:Roboto;-inkscape-font-specification:'Roboto Medium';letter-spacing:0px;word-spacing:0px;fill:#ffff8d;fill-opacity:1;stroke:none;stroke-width:1px;stroke-linecap:butt;stroke-linejoin:miter;stroke-opacity:1"
           d="m -1523.4572,538.91547 0,-17.61719 -3.2226,0 0,-3.51563 3.2226,0 0,-2.46093 q 0,-3.4961 1.8946,-5.39063 1.914,-1.89453 5.3515,-1.89453 0.6836,0 1.3867,0.11719 0.7032,0.0976 1.5821,0.29297 l -0.4883,3.67187 q -0.3906,-0.0781 -0.8789,-0.13672 -0.4688,-0.0586 -1.0156,-0.0586 -1.543,0 -2.3243,0.87891 -0.7617,0.8789 -0.7617,2.51953 l 0,2.46093 4.2969,0 0,3.51563 -4.2969,0 0,17.61719 -4.7461,0 z" />
        <path
           inkscape:connector-curvature="0"
           id="path4160"
           style="font-style:normal;font-variant:normal;font-weight:500;font-stretch:normal;font-size:medium;line-height:125%;font-family:Roboto;-inkscape-font-specification:'Roboto Medium';letter-spacing:0px;word-spacing:0px;fill:#ffff8d;fill-opacity:1;stroke:none;stroke-width:1px;stroke-linecap:butt;stroke-linejoin:miter;stroke-opacity:1"
           d="m -1501.8751,539.32562 q -4.4922,0 -7.168,-2.92968 -2.6563,-2.94922 -2.6563,-7.5586 l 0,-0.78125 q 0,-4.60937 2.6368,-7.63672 2.6562,-3.04687 6.6406,-3.02734 4.2773,0 6.543,2.59766 2.2851,2.57812 2.2851,6.93359 l 0,2.79297 -13.1836,0 -0.039,0.0977 q 0.1171,2.51954 1.4648,4.1211 1.3672,1.60156 3.7695,1.60156 1.9141,0 3.2813,-0.46875 1.3672,-0.46875 2.6367,-1.34766 l 1.5234,3.10547 q -1.1914,1.05469 -3.164,1.77735 -1.9727,0.72265 -4.5703,0.72265 z m -0.5469,-18.125 q -1.7578,0 -2.8906,1.40625 -1.1328,1.38672 -1.4063,3.53516 l 0.039,0.0977 8.3789,0 0,-0.48829 q 0,-2.01171 -1.0352,-3.28125 -1.0156,-1.26953 -3.0859,-1.26953 z" />
        <path
           inkscape:connector-curvature="0"
           id="path4162"
           style="font-style:normal;font-variant:normal;font-weight:500;font-stretch:normal;font-size:medium;line-height:125%;font-family:Roboto;-inkscape-font-specification:'Roboto Medium';letter-spacing:0px;word-spacing:0px;fill:#ffff8d;fill-opacity:1;stroke:none;stroke-width:1px;stroke-linecap:butt;stroke-linejoin:miter;stroke-opacity:1"
           d="m -1485.4298,517.78265 0.2539,2.75391 q 1.0351,-1.50391 2.5976,-2.32422 1.5625,-0.82031 3.6133,-0.82031 2.0703,0 3.5547,0.9375 1.4844,0.9375 2.2266,2.8125 0.9765,-1.75781 2.5781,-2.75391 1.6016,-0.99609 3.75,-0.99609 3.1836,0 5.0195,2.1875 1.8555,2.16797 1.8555,6.60156 l 0,12.73438 -4.7461,0 0,-12.75391 q 0,-2.69531 -0.9375,-3.78906 -0.918,-1.09375 -2.7734,-1.09375 -1.5235,0 -2.5782,0.82031 -1.0546,0.82031 -1.5234,2.20703 0,0.29297 0.019,0.50781 0.02,0.21485 0.02,0.41016 l 0,13.69141 -4.7461,0 0,-12.75391 q 0,-2.59766 -0.9571,-3.73047 -0.9375,-1.15234 -2.7734,-1.15234 -1.4453,0 -2.4609,0.5664 -0.9961,0.54688 -1.5821,1.5625 l 0,15.50782 -4.7461,0 0,-21.13282 4.336,0 z" />
        <path
           inkscape:connector-curvature="0"
           id="path4164"
           style="font-style:normal;font-variant:normal;font-weight:500;font-stretch:normal;font-size:medium;line-height:125%;font-family:Roboto;-inkscape-font-specification:'Roboto Medium';letter-spacing:0px;word-spacing:0px;fill:#ffff8d;fill-opacity:1;stroke:none;stroke-width:1px;stroke-linecap:butt;stroke-linejoin:miter;stroke-opacity:1"
           d="m -1449.1017,512.64594 0,5.13671 3.7891,0 0,3.51563 -3.7891,0 0,11.67969 q 0,1.30859 0.5664,1.875 0.5664,0.54687 1.5039,0.54687 0.3906,0 0.7617,-0.0586 0.3711,-0.0781 0.7032,-0.19531 l 0.5078,3.47656 q -0.6055,0.33203 -1.4453,0.50781 -0.8399,0.19531 -1.7383,0.19531 -2.6172,0 -4.1016,-1.52343 -1.4844,-1.54297 -1.4844,-4.82422 l 0,-11.67969 -3.2226,0 0,-3.51563 3.2226,0 0,-5.13671 4.7266,0 z" />
        <path
           inkscape:connector-curvature="0"
           id="path4166"
           style="font-style:normal;font-variant:normal;font-weight:500;font-stretch:normal;font-size:medium;line-height:125%;font-family:Roboto;-inkscape-font-specification:'Roboto Medium';letter-spacing:0px;word-spacing:0px;fill:#ffff8d;fill-opacity:1;stroke:none;stroke-width:1px;stroke-linecap:butt;stroke-linejoin:miter;stroke-opacity:1"
           d="m -1441.9728,528.15375 q 0,-4.70703 2.5781,-7.73438 2.6172,-3.02734 7.0899,-3.02734 4.5508,0 7.1289,3.02734 2.5976,3.00782 2.5976,7.73438 l 0,0.41015 q 0,4.76563 -2.5976,7.77344 -2.5781,2.98828 -7.0899,2.98828 -4.5312,0 -7.1289,-3.00781 -2.5781,-3.00781 -2.5781,-7.75391 l 0,-0.41015 z m 4.7461,0.41015 q 0,3.08594 1.2109,5.03907 1.1914,1.93359 3.75,1.93359 2.4805,0 3.711,-1.93359 1.25,-1.95313 1.25,-5.03907 l 0,-0.41015 q 0,-3.02735 -1.25,-4.98047 -1.2305,-1.97266 -3.75,-1.97266 -2.4805,0 -3.711,1.97266 -1.2109,1.97266 -1.2109,4.98047 l 0,0.41015 z" />
      </g>
      <g
         transform="matrix(0.37780171,0,0,0.37780171,-887.12204,338.72318)"
         id="text4202"
         style="font-style:normal;font-weight:normal;font-size:40px;line-height:125%;font-family:sans-serif;letter-spacing:0px;word-spacing:0px;fill:#ffff8d;fill-opacity:1;stroke:none;stroke-width:1px;stroke-linecap:butt;stroke-linejoin:miter;stroke-opacity:1">
        <path
           style="fill:#ffff8d;fill-opacity:1"
           inkscape:connector-curvature="0"
           id="path4207"
           d="m -1405.3906,536.98468 -4.668,0 0,-5.56641 4.668,0 0,5.56641 z" />
        <path
           style="fill:#ffff8d;fill-opacity:1"
           inkscape:connector-curvature="0"
           id="path4209"
           d="m -1378.5938,526.45734 -16.0742,0 q 0,2.01172 0.6055,3.51562 0.6055,1.48438 1.6602,2.44141 1.0156,0.9375 2.4023,1.40625 1.4062,0.46875 3.0859,0.46875 2.2266,0 4.4727,-0.87891 2.2656,-0.89844 3.2226,-1.75781 l 0.1954,0 0,4.00391 q -1.8555,0.78125 -3.7891,1.30859 -1.9336,0.52734 -4.0625,0.52734 -5.4297,0 -8.4766,-2.92968 -3.0468,-2.94922 -3.0468,-8.35938 0,-5.35156 2.9101,-8.49609 2.9297,-3.14453 7.6953,-3.14453 4.4141,0 6.7969,2.57812 2.4023,2.57813 2.4023,7.32422 l 0,1.99219 z m -3.5742,-2.8125 q -0.02,-2.89063 -1.4648,-4.47266 -1.4258,-1.58203 -4.3555,-1.58203 -2.9492,0 -4.707,1.73828 -1.7383,1.73828 -1.9727,4.31641 l 12.5,0 z" />
        <path
           style="fill:#ffff8d;fill-opacity:1"
           inkscape:connector-curvature="0"
           id="path4211"
           d="m -1341.1914,536.98468 -3.6719,0 0,-12.42187 q 0,-1.40625 -0.1367,-2.71485 -0.1172,-1.30859 -0.5273,-2.08984 -0.4493,-0.83985 -1.2891,-1.26953 -0.8399,-0.42969 -2.4219,-0.42969 -1.543,0 -3.0859,0.78125 -1.543,0.76172 -3.086,1.95312 0.059,0.44922 0.098,1.05469 0.039,0.58594 0.039,1.17188 l 0,13.96484 -3.6719,0 0,-12.42187 q 0,-1.44532 -0.1367,-2.73438 -0.1172,-1.30859 -0.5274,-2.08984 -0.4492,-0.83985 -1.289,-1.25 -0.8399,-0.42969 -2.4219,-0.42969 -1.5039,0 -3.0274,0.74219 -1.5039,0.74218 -3.0078,1.89453 l 0,16.28906 -3.6718,0 0,-21.81641 3.6718,0 0,2.42188 q 1.7188,-1.42578 3.418,-2.22656 1.7187,-0.80078 3.6523,-0.80078 2.2266,0 3.7696,0.9375 1.5625,0.9375 2.3242,2.59765 2.2266,-1.875 4.0625,-2.69531 1.8359,-0.83984 3.9258,-0.83984 3.5937,0 5.2929,2.1875 1.7188,2.16796 1.7188,6.07421 l 0,14.16016 z" />
        <path
           style="fill:#ffff8d;fill-opacity:1"
           inkscape:connector-curvature="0"
           id="path4213"
           d="m -1317.168,536.98468 -3.6523,0 0,-2.32422 q -0.4883,0.33203 -1.3281,0.9375 -0.8204,0.58594 -1.6016,0.9375 -0.918,0.44922 -2.1094,0.74219 -1.1914,0.3125 -2.7929,0.3125 -2.9493,0 -5,-1.95313 -2.0508,-1.95312 -2.0508,-4.98046 0,-2.48047 1.0547,-4.00391 1.0742,-1.54297 3.0468,-2.42188 1.9922,-0.8789 4.7852,-1.1914 2.793,-0.3125 5.9961,-0.46875 l 0,-0.56641 q 0,-1.25 -0.4492,-2.07031 -0.4297,-0.82031 -1.25,-1.28906 -0.7813,-0.44922 -1.875,-0.60547 -1.0938,-0.15625 -2.2852,-0.15625 -1.4453,0 -3.2226,0.39062 -1.7774,0.3711 -3.6719,1.09375 l -0.1953,0 0,-3.73047 q 1.0742,-0.29296 3.1054,-0.64453 2.0313,-0.35156 4.0039,-0.35156 2.3047,0 4.0039,0.39063 1.7188,0.37109 2.9688,1.28906 1.2305,0.89844 1.875,2.32422 0.6445,1.42578 0.6445,3.53515 l 0,14.80469 z m -3.6523,-5.37109 0,-6.07422 q -1.6797,0.0977 -3.9649,0.29297 -2.2656,0.19531 -3.5937,0.5664 -1.582,0.44922 -2.5586,1.40625 -0.9766,0.9375 -0.9766,2.59766 0,1.875 1.1328,2.83203 1.1329,0.9375 3.4571,0.9375 1.9336,0 3.5351,-0.74219 1.6016,-0.76172 2.9688,-1.8164 z" />
        <path
           style="fill:#ffff8d;fill-opacity:1"
           inkscape:connector-curvature="0"
           id="path4215"
           d="m -1306.1133,511.51593 -4.1406,0 0,-3.80859 4.1406,0 0,3.80859 z m -0.2344,25.46875 -3.6718,0 0,-21.81641 3.6718,0 0,21.81641 z" />
        <path
           style="fill:#ffff8d;fill-opacity:1"
           inkscape:connector-curvature="0"
           id="path4217"
           d="m -1295.4883,536.98468 -3.6719,0 0,-30.39062 3.6719,0 0,30.39062 z" />
      </g>
    </g>
  </g>
</svg>
